<?xml version="1.0" encoding="utf-8"?>
<!-- Generator: Adobe Illustrator 18.1.1, SVG Export Plug-In . SVG Version: 6.00 Build 0)  -->
<svg version="1.1" id="Layer_1" xmlns="http://www.w3.org/2000/svg" xmlns:xlink="http://www.w3.org/1999/xlink" x="0px" y="0px"
	 viewBox="0 0 185 119" enable-background="new 0 0 185 119" xml:space="preserve">
<path fill="none" stroke="#000000" stroke-miterlimit="10" d="M101,7.3c-10.2,0-20.2-1.8-29.8,1.5c-0.7,0.4-1.5,0.7-1.9,1.5
	c-1.9,3.7-2.2,7.8-1.1,11.9c1.1,2.6,3.3,4.1,6.3,4.4c4.1,0.4,7.8-0.7,11.9-0.4c5.2,0.7,10,1.5,15.2,0.4c0.4-0.4,0.7-1.1,0.7-1.5
	c0.4-4.4,0.7-8.9,0.4-13.3c-0.4-1.5,0-3-0.7-4.1c-0.4-0.4-0.4-0.7-0.7-0.7c-5.6,0-11.1-0.4-16.7,0.7c-1.1,6.7,0.4,13.3-0.6,20.1
	c0-0.3,0-0.7,0-1c0,0.3,0,0.7,0,1c-0.2-1.4-0.6-3-0.2-4.4c0.4-1.8,2.4-2.3,4-2.6c4.6-1,9.4-0.2,14.1-0.5c-1.1,0-2.2,0-3.3-0.1
	c1.1,0,2.2,0,3.3,0.1c-4.9,0-9.9-0.1-14.5-1.8c-1.6-0.6-4-1.9-1.7-3.4c1.9-1.2,4.4-1.2,6.6-1.4c3-0.2,6-0.5,9.1-0.7
	c-4.8,1-10.6,1.7-15-1.1c-1-0.7-3.3-2.5-2.3-3.8C84.7,7,86.4,7.1,87.4,7c1.5-0.2,3.1-0.3,4.7-0.4c3.6-0.2,7.2-0.5,10.9-0.5
	c-0.1-0.3-0.4-0.5-0.6-0.6c4-0.1,8-0.2,12-0.3c0,2.8-0.1,5.6-0.1,8.4c14.8,0,29.6,0,44.5,0.4c1.9-2.2,4.8-4.1,7.4-2.2
	c1.9,4.1,7.4,3,11.1,2.2c-0.2,2,0,4,0.6,5.9c-21.4-0.3-42.9,1.2-64.3,0.2c0.8,1.1,3.4,0,0,0c0.4,1.3,0,2.8,0.4,3.9
	c0.7,0.7,2.2,0.4,3,0.4c17.1,0.4,33.7,0,50.8-1.1c0.7,0,1.9-0.4,2.6-0.7c0.7-0.4,1.1-0.7,1.5-1.1c0-0.4,0-1.1,0-1.5
	c-2.6-1.9-5.6,0-8.5-1.1c-16.7,1.1-33.7,0.7-50.4,1.8c1.1,0.7,3.2,0.6,4.4,0.1c-1.4-0.5-2.9-0.1-4.4-0.1c1.3,1.1,3.2,2,4.8,0.8
	c-1.1-1.5-3.3-0.4-4.8-0.8c0.7,0.5,0.7,1.6,1.4,1.6c0-0.7,0-1.1-1.4-1.6c2.7,3.8,0.5,0.1,0,0c2.7,3.8,1.2,8.7-2,11.8
	c-3.4,3.3-8.2,4.4-12.5,6.1c-3,1.2-6,2.5-9.1,3.7c0.3,0.3,2.4,1.9,2.3,0.4c-0.1-0.9-1.7-0.6-2.3-0.4c3,3.3,5.4,7.5,6.2,11.9
	c0.7,3.5,0.5,8.2-3,10.2c-3.9,2.3-9.7,2-14,1.6c-4.8-0.5-7.9-4.7-9.5-8.9c-0.6-1.7-2.1-5.4-0.8-7.1c1-1.2,3-1,4.2-2
	c-1,6.3,6.8,8.3,11.5,9c-3.8-2.4-10.1-5.7-7.5-10.9c3.3-1.9,6.7-3,10.4-3.7c0.7,0,1.9-0.4,2.6,0c4.8,4.4,6.3,11.1,5.6,17.4
	c-0.7,3.7-3.7,7-7.8,7.8c-10,1.9-17.1-6.3-18.9-15.6c-0.4-1.1-1.1-2.2-2.2-2.6c-0.4,0-0.7,0.4-1.1,1c-3.5,0.3-6.7,2.1-9.1,4.7
	c-2.3,2.7-3.9,5.9-5.5,9.1c-1.1,2.2-2.2,4.5-3,6.9c-0.9,2.7-1.3,5.6-1.7,8.5c-1.5,10.1-3,20.3-3,30.5c-11.4,0.1-22.9,0-34.3,0.2
	c-0.2-5.8,1.1-11.5,2.6-17.1c2.3-8.9,5.2-17.7,8.5-26.3c1.7-4.5,3.7-9,6.8-12.7c1.9-2.3,4.3-4.2,6.7-6.2c2.2-1.8,4.5-3.6,6.7-5.5
	c2.4-2,4.9-4,8-4.7c0.7,0.9,0.6,1.9-0.3,2.6s-2,1-3.1,1.5c-4.1,1.6-7,5.4-9.7,8.9c-2,2.6-3.9,5.2-5.9,7.8c-2.2,2.9-4.4,5.9-6,9.1
	c-1.1,2.2-1.9,4.5-2.7,6.9c-2.8,8.1-5.5,16.3-6.2,24.8c7.3,2.6,15.2,3.5,22.9,2.8c0.7-4.5,1.2-9,1.4-13.5c0-0.5,0-1-0.3-1.3
	c-0.3-0.3-0.7-0.3-1.1-0.3c-2.5,0-5,0.4-7.4,1.2c-1.8,0.6-3.8,2.2-3,3.8c0.3,0.7,1.1,1.2,2,1.3c1.4,0.2,2.9-0.5,3.7-1.7
	c0.8-1.2,0.8-2.8,0.1-4c2-0.8,4.3-1.1,6.4-0.9c2.2-9.2,5.3-18.2,9.1-26.8c1.1-2.4,2.4-4.9,4.8-6c0.4-0.2,0.8-0.3,0.9-0.7
	c0.1-0.5-0.2-0.9-0.5-1.2c-2.5-2.6-5.1-5.2-7.6-7.8c-0.5-0.5-1-1-1.7-1.2c-1-0.3-2.1,0.4-2.7,1.3c-0.6,0.9-0.7,2-0.8,3.1
	c-0.2,1.6-0.4,3.2,0.1,4.6c0.5,1.5,2,2.7,3.6,2.5c1.5-0.3,2.5-1.9,2.6-3.4c0.1-0.5,0-1.1-0.4-1.5c-0.5-0.5-1.3-0.3-1.9,0.1
	c-0.9,0.5-1.7,1.4-1.7,2.5c0,1,1.2,2,2.1,1.5c-1.2,1.4-3.7,0.4-4.3-1.3s-0.2-3.6,0.4-5.3c0.6-2,1.5-4.3,3.4-5.1
	c0.8-0.3,1.6-0.4,2.2-0.9c0.4-0.3,0.6-0.8,0.8-1.2c1.1-2.3,2.2-4.7,2.4-7.2c0.2-2.6-0.6-5.4,0.3-7.8c0.9-2.4,3.1-4,5.4-5.1
	c3.7-1.8,7.8-2.7,11.9-2.8c-3-0.3-5.9-1.7-8.1-3.8c-1.1-1.1-2.1-2.4-3.4-3.3c-2.4-1.8-5.7-2-8.7-2.2c4.2-2,9.6-1.2,13.2,1.9
	c1.3,1.1,2.3,2.5,3.6,3.6c1.3,1.1,3.1,1.8,4.7,1.4"/>
</svg>
