<?xml version="1.0" encoding="utf-8"?>
<!-- Generator: Adobe Illustrator 18.1.1, SVG Export Plug-In . SVG Version: 6.00 Build 0)  -->
<svg version="1.1" id="Layer_1" xmlns="http://www.w3.org/2000/svg" xmlns:xlink="http://www.w3.org/1999/xlink" x="0px" y="0px"
	 viewBox="0 0 774 364" enable-background="new 0 0 774 364" xml:space="preserve">
<path fill="none" stroke="#000000" stroke-width="6" stroke-miterlimit="10" d="M115.7,146.1C97.1,133.4,87,111.5,80.6,89.9
	S70.2,45.7,59.7,25.8c-3.7-7-10.9-14.6-18.3-11.7c-5.9,2.3-7.6,9.7-8.3,16c-3.3,31.5-2.6,63.2-1.8,94.9C27,108.5,25.5,90.4,25,73.3
	c16.5-11.4,38-11.7,58-11.6c21.5,0.1,43.1,0.2,64.6,0.3c-11.9,0-23.3,7.1-29.8,17.2s-8.4,22.5-7,34.4c0.6,5.3,2,10.7,5.6,14.6
	c5.6,6,14.8,6.4,23,6.4c8.6,0,18.6-0.5,23.8-7.4c2.6-3.4,3.5-7.7,4.3-11.8c3.3-17.9,4.7-36.1,4.2-54.3c1.7,14.4,3.4,28.7,5,43.1
	c0.6,5.5,1.4,11.2,4.4,15.8c3.1,4.6,9.2,7.6,14.3,5.4c1.7-22.1,2.1-44.2,1.2-66.4c0.3,22.9,3.4,45.8,9.2,68
	c-5.6-19.5-10.5-42.7,2.4-58.4c4.9-6,15-14.1,22.3-16.8C266,39,304,38,341,37.1c-15.4,0.5-8.4-0.2,0,0c-15.4,0.5-31.3,8.5-40.2,21.2
	c-9.6,13.8-10.4,33.1-2.9,48c7.2,14.4,23.2,25.5,39.7,20.4c8.3-2.6,13.5-8.8,16.7-16.6c3.8-9.2,6.2-19.1,8-28.9
	c1.9-9.8,3.3-20.7-3.4-29.1c-5.5-6.8-14.1-10.3-22-13.4c21.1-0.8,42.1-2.8,63.2-3.6c-2,27.4-0.8,55,3.7,82.1
	c-0.1-14.9,1-29.8,3.2-44.6c1.8-11.8,3.5-26.2,13.3-34.4c7.6-6.4,18.8-8.2,28.1-4.8c10.6,3.9,16.4,14.2,19.5,24.4
	c3.8,12.7,5.6,26.1,8,39.1c0.7,3.7,1.4,7.5,2.1,11.2c0.3,1.7,0.6,3.4,1,5.1c0.3,1.6,1.5,4.5,1.2,6.1c-0.4,2-6.2,3.8-8.3,4.7
	c-3,1.4-6.1,2.6-9.2,3.8c-25.4,9.7-52.5,13.8-79.4,16.7c-29.5,3.2-59,6.1-88.4,9.4c-29.8,3.4-59.5,7-89.2,10.9
	c-29.8,3.9-59.6,8-89.4,12.4c-14.7,2.2-29.4,4.4-44.1,6.7c-13.3,2.1-26.7,4.3-39.1,9.9c-1.1,0.5-3.4,1.1-4.2,2
	c-1,1.2-0.6,3.8-0.7,5.5c-0.1,3.8-0.2,7.6-0.3,11.5c-0.2,7.4-0.5,14.8-0.8,22.2c-0.5,15-1,29.9-1.2,44.9
	c-0.2,14.2-0.6,28.7,0.7,42.8c1,11.2,5.2,21.7,17.6,23.5c10.7,1.5,23.9,1.2,33.8-3.2c12.1-5.3,15.8-17.2,18.2-29.2
	c5.1-25.3,8.2-54,1-79.2c-6.4-22.5-23.7-39.6-47.4-42.5c-5.5-0.7-11.1-0.5-16.5,0.5c-2.1,0.4-6.1,0.8-7.9,2.1
	c-2.1,1.7-3.4,6.4-4.3,8.8c-2.2,6.1-3.2,12.5-3.8,18.9c-0.6,6.4-1.6,13.4-0.7,19.8c1.7,12.2,15.9,19.7,25.6,25.2
	C53.4,274,65,278.9,77,282.8c23.8,7.7,49.6,12.6,74.5,14.5c10.5,0.8,21.8-3.5,20-16c-1.7-11.4-12.5-16.8-23.3-15.7
	c-10.9,1.1-24.2,7.9-28,18.9c-4.1,12,5,24.1,14.6,30.3c10.9,7.1,24.1,9.2,36.8,9.2c7.3,0,14.5-0.7,21.7-1.4
	c5.7-0.5,12.1-1.2,16.6-5.1c4.6-4,6-10.2,7.2-15.8c1.6-7.2,3-14.5,4.3-21.8c2.5-14.5,4.3-29,5.5-43.6c1.1-14.3,1.6-28.6,1.5-42.9
	c2.3,31.7-0.5,65.7,11.4,95.9c4.9,12.5,12.7,24.2,23.8,32c10.6,7.4,25.7,11.4,37.7,4.7c11.3-6.4,14.5-19.8,15.1-31.8
	c0.2-4.7,2-15.2-2.5-18.1c-5.7-3.8-14.4-4.8-21.1-4.7c-13.7,0.3-26.6,7.5-32.4,20.3c-2.6,5.7-3.5,12.2-2.1,18.4
	c1.9,7.9,7.7,11,14.9,13.4c12,4,27.1,4.9,35.4-6.5c4.2-5.8,5.9-13.1,7.4-20c1.9-8.3,3.1-16.7,3.8-25.1c0.3-4.2,0.5-8.4,0.5-12.5
	c-0.2,10.2,0.6,20.3,2.4,30.4C324,297,325,305,328,312c1,2,2,5,3,7c7,7,20,5,24-4c8-19,10-40,11.4-60.4c5.2,19.9-0.8,11.9,0,0
	c6.6,25.4,10.6,54.4,30.4,72c7.8-21.4-4.2-3.5,0,0c10.2-27.6,25.2-53.6,44-75.1c4.9,9.3-4.2,4.9,0,0c4.9,9.3,15.8,15.4,23.9,21.6
	c8.2,6.3,16.8,13.6,27.1,16c9.1,2.1,18.3-1.1,23.6-9c2.3-3.5,3.8-7.6,3.8-11.8c0-5.4-2.4-8.4-7.5-10c-18.5-5.7-38.9,4.5-45.8,22.4
	c-3.2,8.1-4.1,18.5,0.1,26.5c4.9,9.2,17.2,9.5,26.4,10.2c10.7,0.9,21.6,0.3,32.2-1.5c5.4-0.9,10.6-2.2,15.8-3.8
	c4.5-1.4,10.7-5.3,15.3-4.6c19,2.9,43.1,0.2,53.2-18.7c6.8-12.7,12.6-46-11.2-43c-17.5,2.2-33.3,17.6-40.4,33
	c-3,6.4-7.4,18.1,0.1,23.1c4.4,2.9,11,3.6,16,5.1c5.4,1.5,11,3.3,16.6,2.4c19.2-3.4,23.8-31.6,24.1-47.2c0.1-5.5-0.3-11-1.3-16.4
	c-0.1,13.3-0.4,26.6-0.3,39.9c0,4.9,0.3,10.4,3.5,14.4c3.3,4.2,8.8,5.1,13.8,5.4c10.1,0.6,21.3,1.6,31.4,0.2c4.4-0.6,9-2,12-5.5
	c3.4-3.8,3.9-9.2,4.2-14c0.8-15,1-30.1,1.5-45.2c-0.5,11.8-0.2,23.6,1,35.4C681,286,682,295,685,304c8,8,20,2,30,2c2,0,4-2,6-3
	c1-1,2-2,2-3c3-23,2-45,3.7-66.7c0.8,14.1-0.7,13.5,0,0c0.8,14.1,1.6,28.2,2.4,42.3c0.6,10.6,0.3,24.3,12.2,28.8
	c5.7,2.1,12.1,1.7,18,1.1"/>
</svg>
