<?xml version="1.0" encoding="utf-8"?>
<!-- Generator: Adobe Illustrator 18.1.1, SVG Export Plug-In . SVG Version: 6.00 Build 0)  -->
<svg version="1.1" id="Layer_1" xmlns="http://www.w3.org/2000/svg" xmlns:xlink="http://www.w3.org/1999/xlink" x="0px" y="0px"
	 viewBox="0 0 84.2 74.5" enable-background="new 0 0 84.2 74.5" xml:space="preserve">
<path fill="none" stroke="#000000" stroke-miterlimit="10" d="M42.1,38.1c11.7-0.3,24.1-0.4,34.3,5.5c2.2,1.3,4.3,2.9,5.1,5.3
	c1,2.7,0,5.8-1.9,7.9c-1.9,2.1-4.5,3.5-7.2,4.5C62.3,65.2,51,64.9,40.1,65c-9.9,0-20.4,0.2-29.2-4.4c-1.6-0.8-3.1-1.8-4.1-3.1
	C5.6,56,5,54.1,4.6,52.3c-0.4-2-0.7-4.2,0.1-6.2c1.3-3.4,5.2-5.1,8.8-5.9c3-0.7,6.1-0.9,9.2-1.2c9.4-0.8,18.8-1.2,28.2-1.4
	c3.8-0.1,7.6-0.1,11.3,0.5c2.8,0.5,5.6,1.3,8.4,2.1c2.8,0.8,5.7,1.7,7.8,3.7c2.5,2.3,3.6,5.9,3.8,9.3c0.1,1.2,0.1,2.5-0.3,3.7
	c-0.7,2.2-2.6,3.8-4.6,5c-2.9,1.8-6.1,2.9-9.3,3.8c-13.6,3.8-27.9,3.5-42,3.5c-2.9,0-5.8,0-8.5-0.9c-3.3-1-6.2-3.3-8.4-6
	c-2.8-3.4-4.5-7.7-5-12.1C4,48.7,5.9,47.2,6.9,46c1.3-1.5,1.6-3.6,1.9-5.6C9.6,34.2,9.7,27.9,9,21.7C8.8,20.4,8.7,19,9.4,18
	c0.8-1.3,2.6-1.6,3.7-2.7c1.3-1.3,1.4-3.3,1.2-5c-0.1-1.8-0.5-3.7,0.3-5.3c0.1-0.3,0.2-0.5,0.4-0.7c0.9-0.9,2.5-0.2,3,0.9
	c0.5,1.1,0.3,2.4,0.1,3.6c-0.4,2.3-0.3,5.1,1.6,6.5c1.3,1,3.1,1.1,4.1,2.4c0.6,0.8,0.7,2,0.7,3c0.1,8.7,0.3,17.4,0.4,26.1
	c0,1.5,0,3.1-0.6,4.5c-0.9,1.9-2.8,3.1-4.8,3.9c-2.5,0.9-5.5,1.2-7.6-0.5c-1.9-1.5-2.5-4.2-2.7-6.6c-0.4-3.7-0.4-7.4,0-11
	c0.6-5.4,0.2-11.3-0.2-16.7c4.9,2.6,10.9,2.3,15.7-0.6c-0.2,6-0.1,12,0.2,18c0,0.8,0.1,1.7-0.2,2.5c-0.3,0.8-0.8,1.5-1.4,2.1
	c-2,1.9-4.7,3-7.5,3c-2.7,0-5.5-1.1-7.4-3c-1-7.4,2.5-15.6,0.9-23c-0.1-0.6-0.3-1.3,0-1.9c0.4-0.8,1.3-1,2.1-1.4
	c1.4-0.7,2.2-2.3,2.5-3.8S13.8,9,14,7.5c0.1-1.1,0.4-2.3,1.4-2.9s2.5-0.1,2.5,1c0,0.8-1.1,1.4-1.9,1.2S14.5,5.9,14,5.2
	c0.4-0.4,1-1.2,1.5-1.3c1-0.3,2,0.5,2.3,1.5c0.3,1,0.2,2,0.2,3c-0.1,1.8,0.1,3.5,0.5,5.2c0.2,0.8,0.4,1.5,0.9,2.2
	c1.3,1.8,4.1,2.1,5,4.1c0.9,2-0.6,4.3,0.1,6.4c1.3,0.4,2.8,0.8,4.1,0.2c0.6-0.3,1-0.9,1.6-1.3c1.1-0.8,2.6-0.9,4.1-1
	c2.3-0.1,4.7-0.3,7-0.4c1.6-0.1,3.5,0.1,4.1,1.5c0.4,0.9-0.1,2-0.8,2.7c-0.8,0.6-1.7,0.9-2.7,1.1c-2.2,0.4-4.4,0.5-6.7,0.5
	c-1.4,0-2.8,0.1-4.1-0.5c-1.3-0.6-2.3-1.9-2-3.3c-0.1,4.6,1.4,9.4,5,12.3c1.2,1,2.6,1.8,3.2,3.1c0.4,0.9,0.4,1.9,0.4,2.9
	c0,1.3,0,2.5,0,3.8c-1.3,0.4-2.6,0.9-4,1.3c-0.9,0.3-1.9,0.8-1.8,1.7c0.1,0.9,1.2,1.2,2.1,1.3c3.2,0.3,6.5,0.3,9.7,0
	c0.7-0.1,1.4-0.1,2-0.5c0.6-0.4,1-1.2,0.7-1.8c-0.2-0.5-0.7-0.8-1.2-1c-1.1-0.5-2.2-0.8-3.4-0.9c-0.8-0.1-1.7-0.1-2.1-0.8
	c-0.1-0.2-0.2-0.5-0.2-0.7c-0.4-1.9-0.8-3.9,0.2-5.6c0.9-1.6,2.8-2.4,3.8-3.9c0.7-1,1.1-2.2,1.3-3.5c0.6-2.8,0.9-5.7,0.9-8.5
	c0.1,1.5-0.2,3.7-0.3,5.2c-0.1,0.8-0.2,1.6-0.7,2.2c-0.5,0.6-1.2,0.9-1.9,1.1c-3.8,1.3-8.1,1.6-12.1,0.8c3.9-1.5,8.2-1.6,12.3-1.7
	c0.3,0,0.6,0,0.8,0.2c0.4,0.3,0.2,0.9-0.1,1.2s-0.8,0.3-1.3,0.4c-1.6,0.1-3.3,0.3-4.9,0.4c-1.8,0.1-3.7,0.3-5.3,1.2
	c1.2,0.5,2.5,0.7,3.7,0.4c2-0.4,4-1.9,5.8-1.1c0.4,0.2,0.8,0.5,0.8,1c0,0.7-0.8,1-1.4,1.1c-2.3,0.5-4.6,0.8-6.9,1
	c0.2,0.9,1.1,1.6,2,1.5c0.7-0.1,1.3-0.6,1.9-1c0.6-0.4,1.5-0.5,2-0.1c-0.5,0.8-1.6,1.3-2.5,1c0.6,0.8,1.8,0.8,2.6,0.3
	c0.8-0.5,1.4-1.4,2.3-1.9c2.4-1.5,5.7-0.1,8.4-0.9c-1.2-1-2.2-2.4-2.5-4c5.1-1.1,10.3-1.7,15.5-1.6c1.7,7.9,3.8,15.8,6.3,23.4
	c-0.2-1-1.1-1.8-1.9-2.5c-1.3-1.1-2.6-2.2-3.9-3.3c-1.3-1.1-2.6-2.2-3.7-3.5c-2-2.2-3.4-4.9-5.2-7.4c-1.8-2.4-4.1-4.6-7.1-5.3
	c-0.1,3.4-0.3,6.7-0.4,10.1c0,0.5,0,1,0.2,1.4c0.2,0.5,0.7,0.8,1.1,1.1c3.2,2.5,5.1,6.3,7.7,9.4c2.4,2.9,5.5,5.3,9,6.9
	c0.2,0.1,0.4,0.2,0.6,0.1c0.3-0.1,0.4-0.3,0.5-0.6c1-2.5,1.9-5,2.8-7.6c-2.2-0.3-4.3-0.6-6.5-0.8c-0.5-0.1-1.1-0.2-1.5-0.5
	c-0.6-0.7-0.2-1.9,0.6-2.3c0.8-0.5,1.8-0.4,2.7-0.2c-1-1.5-2.7-2.3-4.3-3.1c-1.3-0.6-2.7-1.3-4.2-1.5C55.6,45.6,54,46,54,47.1
	c0,0.3,0.1,0.6,0.3,0.8c0.6,0.7,1.9,0.5,2.5-0.2c0.6-0.7,0.6-1.8,0.3-2.7c-0.3-0.9-1-1.6-1.6-2.3c-0.8-0.9-1.7-1.9-3-1.9
	c-1.3,0-2.8,1-3.6,0c-0.6-0.7,0.2-1.9,1.1-1.9c0.9,0,1.6,1,1.5,1.9c-0.1,1.3-1.5,2.2-2,3.4c-0.6,1.5,0.2,3.1,1.3,4.2
	c1.1,1.1,2.4,2,3.4,3.2c1.2-0.5,2.6-1,3.9-0.7s2.4,1.7,1.9,2.9c-0.5,1.2-2.3,1.6-2.6,2.8c1.7,0.1,3.1,1.5,4.5,2.4
	c1.5,0.9,3.6,1.8,3.7,3.6c-10.1-1.6-20.4-2.2-30.6-1.9c-2.6,0.1-5.4,0.2-7.4-1.5c-0.2-0.1-0.3-0.3-0.3-0.5c-0.1-0.4,0.5-0.7,0.9-0.7
	c5.4-0.9,11-1.2,16.4-0.9c0.3,1.1,1.7,1.4,2.9,1.5c2.3,0.2,4.6,0.5,6.9,0.7c0.7,0.1,1.4,0.1,2,0.5c0.6,0.4,0.9,1.2,0.6,1.8
	c-0.5-0.1-1-0.2-1.5-0.3"/>
</svg>
