<?xml version="1.0" encoding="utf-8"?>
<!-- Generator: Adobe Illustrator 18.1.1, SVG Export Plug-In . SVG Version: 6.00 Build 0)  -->
<svg version="1.1" id="Layer_1" xmlns="http://www.w3.org/2000/svg" xmlns:xlink="http://www.w3.org/1999/xlink" x="0px" y="0px"
	 viewBox="0 0 118.8 139" enable-background="new 0 0 118.8 139" xml:space="preserve">
<path fill="none" stroke="#000000" stroke-miterlimit="10" d="M69.5,76.8c4.1,2.6,8.5,4.8,13.1,6.6c5.2,2,10.7,3.4,16,5.2
	c4.8,1.6,9.5,3.6,14,5.9c0.6,0.3,1.2,0.6,1.5,1.2c0.6,0.9,0.3,2.1,0,3.1c-0.5,1.9-1.1,3.9-1.6,5.8c-3.1-2-6.4-3.8-9.9-5.1
	c-4.9-1.9-10.2-2.7-15.3-4.2c-8.5-2.5-16.2-6.9-23.9-11.2c-2.6,10.6,0,21.8-1.9,32.5c0.1-6.7,5.5-13,12.1-14
	c1.2-0.2,2.6-0.2,3.6,0.6c0.7,0.6,1.1,1.5,1.3,2.5c0.4,1.5,0.5,3.5-0.8,4.4c-0.8,0.6-2,0.5-2.9,0.1s-1.6-1.3-2.1-2.1
	c-1-1.5-1.8-3.3-2.2-5.1c4-0.1,8,1,11.8,2.1c3.4,1,6.9,1.9,10.3,2.9c1.7,0.5,3.5,1,5,2c2.1,1.4,3.5,3.7,4.3,6.2
	c-1.2,0.5-2.4,1-3.6,1.2s-2.7-0.2-3.5-1.2c-0.7-0.8-0.9-2-1.1-3.1c-0.1-0.9-0.3-2,0.3-2.8c0.6-0.8,1.6-0.9,2.6-0.9
	c3.8,0.1,7.4,2.9,8.5,6.5c0.4,1.5,0.5,3,0.6,4.6c0.2,3.4,0.3,6.9,0.5,10.3c0,0.3,0,0.7-0.2,1c-0.4,0.6-1.3,0.4-1.9,0.2
	c-14.4-5.3-28.8-10.6-43.2-15.9c4.6,2,9.2,3.9,13.9,5.9c6.3,2.7,12.7,5.3,19.4,6.3c1.5,0.2,3.1,0.4,4.5,0.9c1.4,0.5,2.6,1.4,3.9,2.1
	c2.4,1.3,5.1,2.1,7.8,2.3c1.2-8.1,1.8-16.2,1.8-24.3c0-3.6-0.1-7.4,1.5-10.7c1.6,9.2,0.4,18.5-0.7,27.8c-0.4,2.9-1,6.1-3.5,7.6
	c2.3-8.2,3.1-16.7,2.4-25.2c-0.1-1.1-0.2-2.2-0.3-3.3c-0.3-2.5-0.5-5.1,0.5-7.4c-1.8,0.1-2.8-1.9-4.3-3c-1.3-1-3-1.2-4.6-1.5
	C91.3,91,80.6,82.5,68.1,81c-0.3,0.8-0.7,1.6-1,2.3c8.7,3.1,17.5,6.2,25.8,10.4c2.9,1.5,5.7,3.1,8.8,4.3c3,1.2,6.1,2,9.3,2.2
	c-1.1-0.9-0.7-2.7,0.2-3.8c0.9-1.1,2.1-2,2.7-3.2c0.9-2-0.2-4.3-1.5-6.1c-0.5-0.7-1.2-1.5-1.3-2.4c-0.1-0.7,0.1-1.4,0.4-2
	c1.4-3.2,4.6-6.1,3.9-9.5c-0.5-2.5-3.1-4.4-3.4-7c-0.2-2.5,1.9-5.1,1-7.5c-0.8-2.2-4-3.1-4.6-5.4c-0.5-2,1.2-3.8,1.8-5.8
	c0.2-0.6,0.3-1.2,0.2-1.8c-0.2-1.1-1.1-1.9-2.1-2.4c-3.7-1.9-8.9,0-12.1-2.7c-0.5-0.4-0.9-0.9-1.2-1.3c-0.7-0.8-1.4-1.6-2.1-2.5
	c-4-4.8-5.7-12.4-7.3-18.4S80.8,5.8,74.8,4c-2.9-0.9-6.3-0.4-8.8,1.3c-1.2,0.8-2.3,1.9-3.5,2.8c-4.7,3.6-11.1,3.8-16.9,3
	C39.8,10.2,34,8.5,28.1,8.5c-5.5,0-11.1,1.7-15.7,4.7c-6.4,4.2-11.1,12-9,19.3c1.2,4.2,4.4,7.5,7,11.1c2.3,3.2,4.1,6.8,5.4,10.5
	c0.4,1.2,0.8,2.5,1.9,3.2c0.8,0.5,1.9,0.6,2.9,0.5c9-0.3,17.9-3.9,24.7-9.9c1.9-1.7,3.7-3.6,6.1-4.5c1.8-0.7,3.8-0.7,5.8-0.7
	c4.6,0,9.7,0.1,13.1,3.2c2.6,2.4,3.7,6.1,4.5,9.5c0.7,2.7,1.4,5.3,2,8c0.3,1.2,0.6,2.4,0.3,3.5c-0.3,1.2-1.2,2-2,2.9
	c-3.9,4.4-5.6,10.8-4.4,16.6c1.1,0,2.1,0,3.2,0c-0.8-3.9-2.3-7.7-4.5-11.1c-2.3,2.6-4.3,5.4-6.1,8.3c3.6-3.4,2.9-10.4,7.4-12.4
	c0.7-0.3,1.5-0.5,2.1-1c0.6-0.5,0.7-1.4,0.9-2.1c1-5.5,1.9-11.6-0.8-16.5c-2.3-4.1-6.8-6.7-11.4-7.6c-4.8-1-10-0.3-14.5,1.8
	c-3,1.4-5.7,3.4-8.6,5c-4.3,2.2-9.1,3.5-13.9,3.5c-3,0-6.2-0.4-8.6-2.1c-2.7-1.9-4.3-5-5.7-8c-2.8-5.8-5.6-11.8-5.3-18.2
	c0.1-1.4,0.3-2.9,1-4.2c0.7-1.2,1.8-2.1,2.9-3c3.3-2.7,6.8-5.5,11-6.5c2.1-0.5,4.2-0.5,6.3-0.5c4.1,0,8.1,0,12.2-0.1
	c2.5,0,5,0,7.3,0.8c1.4,0.5,2.7,1.2,4.1,1.5c4.2,0.9,8.3-1.9,11.4-4.8s6.4-6.3,10.6-6.9c4.6-0.6,9.1,2.3,11.6,6.2
	c2.5,3.9,3.5,8.5,4.5,13s2,9.2,4.6,13c3.1,4.5,8.3,7.5,13.7,8c2.1,0.2,4.3,0,6.3,0.9c1.9,0.9,3.3,3.5,2,5.2c-0.5,0.7-1.5,1.2-1.9,2
	c-0.8,1.5,0.5,3.2,1.3,4.8c1,1.8,1.2,4.1,0.6,6.1c-0.4,1.3-1.1,2.5-1.3,3.8c-0.3,2.3,1.2,4.5,2.3,6.6c1.2,2.1,2,4.7,0.7,6.7
	c-0.6,0.9-1.5,1.5-2.1,2.3c-1.8,2.3-0.9,5.6-0.1,8.4s1.5,6.2-0.6,8.3c-0.4,4.1-0.7,8-0.9,12.2c-0.3-0.7-1.2-1.1-1.9-1.3
	c-4.2-1.3-8.3-2.7-12.5-4c-0.1-2-0.2-4-0.3-6c-4.3-1.1-8.9-2.6-13.3-3.5c-0.2,1.3-0.3,2.6-0.5,3.8c-4.3-1.7-8.5-3.2-12.9-4.6
	c-0.1,0-0.1,0-0.1-0.1c-0.3-1.9-0.1-3.8-0.6-5.6c-1.7-0.9-3.5-2.2-5.2-3.1c-0.6-0.3-1.4-0.6-1.7-0.1c-0.1,0.2-0.2,0.4-0.2,0.6
	c-0.2,1.3-0.5,2.6-0.7,3.9c5.2,2.2,10.3,4.5,15.5,6.7c7.5,3.2,15,6.4,22.7,9c1.6,0.5,3.1,1,4.7,1.5c2.7,0.9,5.3,1.9,7.8,3.1"/>
</svg>
