<?xml version="1.0" encoding="utf-8"?>
<!-- Generator: Adobe Illustrator 18.1.1, SVG Export Plug-In . SVG Version: 6.00 Build 0)  -->
<svg version="1.1" id="Layer_2" xmlns="http://www.w3.org/2000/svg" xmlns:xlink="http://www.w3.org/1999/xlink" x="0px" y="0px"
	 viewBox="0 0 234 182" enable-background="new 0 0 234 182" xml:space="preserve">
<path fill="none" stroke="#17F3FF" stroke-width="2" stroke-miterlimit="10" d="M131.9,177.7c-4.8-1.2-9.7-2.4-13.7-5.4
	s-6.7-8.1-5.4-12.8c0.9-3.3,3.6-5.8,6.5-7.4c4.2-2.3,10.4-2.4,13,1.7c2.4,3.8-0.1,9.4-4.3,10.9c-4.2,1.5-9.1-0.5-12-4
	c-2.8-3.5-3.8-8.1-3.9-12.6c-0.1-5.7,1.8-12.1,6.8-14.8c5-2.7,12.9,1.6,11.6,7.1c-5.3,5.8-16.2,3.6-19.7-3.4
	c-3.5-7,0.4-16.4,7.5-19.8c3.7-1.8,8.2-2.1,12.1-0.9c-0.1,1.6-0.1,3.1-0.2,4.7c-5.6,4.1-14.6,1.9-17.8-4.3c-0.9-1.9-1.7-4.2-3.6-4.9
	c-1.8-0.6-3.7,0.7-5.3,1.8c-7.6,5.5-17,9.7-26.1,7.3c-9-2.4-15.5-14.1-10-21.6c-7.4,7.3-20.7,7.6-28.4,0.6c-3.1-2.8-5.2-6.4-7.7-9.7
	c-6-8.2-14-14.9-23.1-19.4c-2.3-1.2-5.2-3.3-4.2-5.6c0.3-0.8,1-1.4,1.7-1.9c3.8-2.9,7.6-5.8,11.4-8.7c-4.1-0.2-6.9-4.9-6.5-9
	c0.4-4.1,2.9-7.7,5.4-11c2.2-2.9,4.3-5.9,6.5-8.8c1.3-1.8,2.8-3.7,4.9-4.5c5.1-1.8,9.6,3.7,12.2,8.4C46,18.7,56.9,10.6,69,7.8
	s25.4-0.2,35.6,6.9c0.3-4.7,5.6-7.2,10.1-8.2c7.7-1.8,15.7-2.3,23.6-1.5c4.1,0.4,8.4,1.2,11.7,3.7c3.4,2.4,5.6,6.8,4.4,10.8
	c6.8-7.8,17.4-10.7,27.4-13.3c4-1,8.4-2.1,12.3-0.6c3.4,1.2,5.9,4.1,8.1,7c4.8,6.2,9.2,12.9,10.8,20.5c1.6,7.6,0.1,16.4-5.6,21.7
	c5.4-2.9,12.4-0.7,16.5,3.9c4,4.5,5.5,10.8,5.7,16.9c0.3,8-2.6,17.5-10.2,20c-4.1,1.4-8.9,0.4-12.7,2.6c-2.8,1.6-4.5,4.5-5.8,7.4
	c-4.1,8.8-6,18.5-5.6,28.2c-11.6,0.5-24.2,0.7-33.6-6.1c-3.1-2.3-6.8-5.4-10.2-3.7c-2,1-3,3.3-4.9,4.2c-2.8,1.3-6-0.7-7.7-3.2
	c-1.8-2.5-2.8-5.5-5-7.6c-2.2-2.1-6.3-2.7-7.9-0.1c-3.4-6.6-4.8-14.3-3.8-21.6c0.5-4,2.6-8.7,6.6-9.1c4-0.4,7.1,4.6,5.4,8.3
	c-1.7,3.6-6.9,4.8-10.3,2.6c-3.4-2.2-4.6-6.8-3.5-10.6c1.2-3.8,4.5-6.8,8.2-8.2c2.1-0.8,4.5-1.3,6.1-2.9c1.2-1.3,1.8-3,2.2-4.7
	c2.1-7.6,3.2-15.4,3.2-23.2c0-4.4-0.5-9.4-4-12.2c-2.1-1.7-5-2.2-7.7-2.7c-4.5-0.7-9.3-1.3-13.5,0.5c-4.2,1.8-7.4,6.8-5.6,10.9"/>
</svg>
