<?xml version="1.0" encoding="utf-8"?>
<!-- Generator: Adobe Illustrator 18.1.1, SVG Export Plug-In . SVG Version: 6.00 Build 0)  -->
<svg version="1.1" id="Layer_1" xmlns="http://www.w3.org/2000/svg" xmlns:xlink="http://www.w3.org/1999/xlink" x="0px" y="0px"
	 viewBox="21.1 18 23.8 26.3" enable-background="new 21.1 18 23.8 26.3" xml:space="preserve">
<path fill="none" stroke="#62B0F5" stroke-width="0.5" stroke-miterlimit="10" d="M38.6,35.2c2.7-0.7,4.8-3.2,5.4-5.9
	c0.3-1.2,0.3-2.5,0.2-3.8c0-0.9-0.1-1.9-0.4-2.8c-0.6-1.6-2-2.8-3.6-3.5c-1.6-0.6-3.4-0.7-5.1-0.7C33,18.7,30.9,19,29,19.8
	c-2,0.8-3.7,2.1-4.9,3.8c-1.3,1.9-1.7,4.3-1.8,6.6c-0.1,2.3,0.1,4.6-0.1,6.9c0,0.5-0.1,1,0.3,1.4c0.2,0.3,0.6,0.3,1,0.4
	c2.9,0.5,5.8,0.7,8.7,0.7c0.9,0,1.9-0.1,2.6-0.7c0.7-0.6,0.9-1.5,1.2-2.4c0.6-1.4,1.6-2.6,2.8-3.4c0.2-0.1,0.4-0.2,0.5-0.4
	c0.3-0.5-0.3-1.1-0.8-1.3c-0.6-0.2-1.2-0.1-1.7-0.5c-0.6-0.4-0.8-1.2-0.8-1.9c0-0.7,0.1-1.4-0.1-2.1c-0.4-1.4-2.3-2.1-3.6-1.5
	c-1.4,0.6-2.2,2-2.4,3.5c-0.1,0.9,0.1,1.9,0.7,2.4c0.3,0.3,0.7,0.4,1.1,0.5c0.8,0.2,1.7,0.2,2.5-0.1c0.8-0.3,1.4-1,1.6-1.8
	c-0.2,1-1.2,1.8-2.2,2.1c-1,0.3-2.1,0.4-3.1,0.4c-1.4,0-2.7,0-4.1,0c-0.9,0-1.8,0-2.6-0.3c-0.8-0.3-1.6-0.8-1.9-1.6
	c-0.5-1.2,0.3-2.6,1-3.6c0.4-0.5,1-1.1,1.6-1c0.5,0.1,0.8,0.7,0.7,1.2c0,0.5-0.3,1-0.5,1.5c-1,2-1.5,4.3-1.6,6.5
	c0.4-0.7,0.9-1.3,1.3-2c0.2-0.3,0.4-0.6,0.7-0.7c0.6-0.3,1.4,0.1,1.7,0.8c0.3,0.6,0.2,1.4,0.2,2.1c1.3-1.6,1.5-4.1,0.5-5.9
	c-1.8,0.9-3.2,2.4-4,4.2c-0.8,1.8-1.2,3.8-1.2,5.8c0.1-0.9,0.6-1.7,1.3-2.2c0.1-0.1,0.2-0.1,0.3-0.1c0.1,0,0.1,0.1,0.2,0.2
	c0.2,0.7,0.4,1.4,0.6,2.1c0.8-0.7,1.5-1.4,2.2-2.2c0.2,0.6,0.3,1.3,0.2,1.9c0.3-0.2,0.4-0.6,0.5-1c0.1-0.4,0.6-0.7,0.9-0.5
	c0.1,0.1,0.2,0.2,0.2,0.3c0.2,0.5,0.4,1.1,0.5,1.7c0.7-0.7,1.4-1.4,2.1-2.1c0.3,0.6,0.6,1.3,0.7,2c0.3-0.3,0.4-0.7,0.6-1.1
	c0.2-0.4,0.5-0.8,0.9-0.7c0.4,0,0.7,0.4,0.8,0.8c0.5,1.1,0.2,2.5-0.6,3.4c-1.2-0.3-1.7-1.6-2.1-2.7c-0.6,0.7-1.2,1.3-1.8,2
	c-0.1,0.1-0.2,0.2-0.3,0.2c-0.1,0-0.2-0.1-0.2-0.2c-0.3-0.4-0.5-0.8-0.6-1.3c-0.6,0.4-1.1,0.9-1.7,1.3c-0.6-0.3-1-0.9-1-1.6
	c-0.5,0.2-1,0.6-1.4,1c-0.3-0.4-0.6-0.8-0.8-1.2c-0.2,0.1-0.1,0.5-0.2,0.7c-0.1,0.5-0.9,0.5-1.2,0.1c-0.3-0.4-0.3-0.9-0.3-1.4
	c-0.2,1.1-0.1,2.2,0.3,3.2c0.1,0.3,0.2,0.6,0.5,0.7c0.2,0.1,0.5,0.2,0.7,0.2c4.1,0.4,8.3,0.8,12.3-0.1c0.7-0.2,1.3-0.4,1.8-0.8
	c0.6-0.6,0.7-1.4,0.8-2.2c0.5-4.8-1.1-9.7-0.6-14.6c0.1-1.2,0.5-2.4,1.4-3.1c1.1-0.7,2.8-0.2,3.3,0.9"/>
</svg>
